<svg width="817" height="1116" viewBox="0 0 817 1116" fill="none" xmlns="http://www.w3.org/2000/svg">
<path d="M246.796 0.5L247.032 89.6221C247.032 104.527 259.112 116.609 274.013 116.609H464.567C479.468 116.609 491.548 128.691 491.548 143.596V334.191C491.548 349.095 503.628 361.178 518.529 361.178H709.083C723.985 361.178 736.064 373.26 736.064 388.165V578.76C736.064 593.664 748.144 605.747 763.045 605.747H790.5M980.581 823.329C980.581 838.233 992.661 850.316 1007.56 850.316H1204.86M2.51562 0.5V89.6221C2.51562 104.527 14.5955 116.609 29.4967 116.609H220.051C234.952 116.609 247.032 128.691 247.032 143.596V334.191C247.032 349.095 259.112 361.178 274.013 361.178H464.567C479.468 361.178 491.548 373.26 491.548 388.165V578.76C491.548 593.664 479.468 605.747 464.567 605.747H274.013C259.112 605.747 247.032 593.664 247.032 578.76V384.792L246.796 383.198C244.985 370.974 234.612 361.847 222.26 361.61L199.815 361.178H29.4967C14.5955 361.178 2.51562 373.26 2.51562 388.165V578.76C2.51562 593.664 14.5955 605.747 29.4967 605.747H221.737L228.142 606.174C238.772 606.883 247.032 615.714 247.032 626.369V647.071M247.032 625.987V823.329C247.032 838.233 259.112 850.316 274.013 850.316H464.567C479.468 850.316 491.548 862.398 491.548 877.303V1067.9C491.548 1082.8 503.628 1094.88 518.529 1094.88H709.083C723.985 1094.88 736.064 1106.97 736.064 1121.87" stroke="white" stroke-opacity="0.14" stroke-width="4.02796"/>
</svg>
