<svg width="361" height="78" viewBox="0 0 361 78" fill="none" xmlns="http://www.w3.org/2000/svg">
<path d="M113.979 20.3387C113.979 19.2466 114.378 18.3435 115.176 17.6294C115.975 16.8732 116.983 16.4952 118.201 16.4952H135.717C138.742 16.4952 141.409 17.1043 143.72 18.3225C146.072 19.4986 147.878 21.1999 149.138 23.4262C150.441 25.6105 151.092 28.1519 151.092 31.0503C151.092 33.9907 150.462 36.5741 149.201 38.8004C147.941 40.9847 146.156 42.686 143.846 43.9042C141.535 45.0803 138.826 45.6684 135.717 45.6684H122.422V54.9307C122.422 56.947 121.687 58.5013 120.217 59.5934C118.789 60.6436 116.71 61.1686 113.979 61.1686V20.3387ZM135.717 38.3594C137.944 38.3594 139.666 37.7083 140.884 36.4061C142.102 35.1039 142.711 33.2976 142.711 30.9873C142.711 28.719 142.081 26.9547 140.821 25.6945C139.603 24.4343 137.902 23.8042 135.717 23.8042H122.422V38.3594H135.717ZM172.966 61.1686C169.521 61.1686 166.371 60.4965 163.514 59.1524C160.658 57.7662 158.39 55.8969 156.709 53.5445C155.071 51.1922 154.252 48.6298 154.252 45.8574V31.1763C154.252 28.4039 155.071 25.8625 156.709 23.5522C158.39 21.1999 160.658 19.3516 163.514 18.0074C166.371 16.6212 169.521 15.9281 172.966 15.9281C176.41 15.9281 179.561 16.6212 182.417 18.0074C185.315 19.3516 187.584 21.1999 189.222 23.5522C190.902 25.8625 191.742 28.4039 191.742 31.1763V45.8574C191.742 48.6298 190.902 51.1922 189.222 53.5445C187.584 55.8969 185.315 57.7662 182.417 59.1524C179.561 60.4965 176.41 61.1686 172.966 61.1686ZM172.966 53.7966C176.116 53.7966 178.636 53.0615 180.527 51.5913C182.417 50.079 183.362 48.1258 183.362 45.7314V31.3653C183.362 28.929 182.417 26.9757 180.527 25.5055C178.636 23.9933 176.116 23.2372 172.966 23.2372C169.857 23.2372 167.358 23.9933 165.468 25.5055C163.577 26.9757 162.632 28.929 162.632 31.3653V45.7314C162.632 48.1258 163.577 50.079 165.468 51.5913C167.358 53.0615 169.857 53.7966 172.966 53.7966ZM197.848 20.3387C197.848 19.2466 198.247 18.3435 199.045 17.6294C199.843 16.8732 200.851 16.4952 202.069 16.4952H219.586C222.61 16.4952 225.278 17.1043 227.588 18.3225C229.94 19.4986 231.747 21.1999 233.007 23.4262C234.309 25.6105 234.96 28.1519 234.96 31.0503C234.96 33.9907 234.33 36.5741 233.07 38.8004C231.81 40.9847 230.024 42.686 227.714 43.9042C225.404 45.0803 222.694 45.6684 219.586 45.6684H206.291V54.9307C206.291 56.947 205.556 58.5013 204.086 59.5934C202.657 60.6436 200.578 61.1686 197.848 61.1686V20.3387ZM219.586 38.3594C221.812 38.3594 223.535 37.7083 224.753 36.4061C225.971 35.1039 226.58 33.2976 226.58 30.9873C226.58 28.719 225.95 26.9547 224.69 25.6945C223.472 24.4343 221.77 23.8042 219.586 23.8042H206.291V38.3594H219.586ZM259.316 61.1686C255.788 61.1686 252.595 60.4545 249.739 59.0263C246.924 57.5981 244.719 55.6238 243.123 53.1035C241.527 50.5831 240.728 47.7267 240.728 44.5342V22.166C240.728 20.1497 241.443 18.6165 242.871 17.5663C244.299 16.4742 246.399 15.9281 249.172 15.9281V44.5342C249.172 47.3486 250.096 49.596 251.944 51.2762C253.792 52.9565 256.25 53.7966 259.316 53.7966C262.383 53.7966 264.84 52.9565 266.688 51.2762C268.536 49.596 269.461 47.3486 269.461 44.5342V22.166C269.461 20.1077 270.175 18.5535 271.603 17.5033C273.031 16.4532 275.131 15.9281 277.904 15.9281V44.5342C277.904 47.7267 277.106 50.5831 275.509 53.1035C273.913 55.6238 271.687 57.5981 268.831 59.0263C266.016 60.4545 262.845 61.1686 259.316 61.1686ZM289.388 60.6016C288.17 60.6016 287.12 60.1605 286.238 59.2784C285.398 58.3962 284.978 57.3461 284.978 56.1279V22.166C284.978 20.0657 285.671 18.5115 287.057 17.5033C288.443 16.4532 290.564 15.9281 293.421 15.9281V53.2925H310.433C312.408 53.2925 313.899 53.9226 314.907 55.1828C315.915 56.401 316.419 58.2072 316.419 60.6016H289.388ZM324.771 61.1686C322.964 60.9586 321.536 60.3285 320.486 59.2784C319.478 58.2282 318.974 56.905 318.974 55.3088C318.974 54.0906 319.268 52.8304 319.856 51.5283L334.285 18.7005C335.083 16.8522 336.469 15.9281 338.444 15.9281C340.376 15.9281 341.741 16.8522 342.539 18.7005L356.968 51.5283C357.556 52.9145 357.851 54.1746 357.851 55.3088C357.851 56.905 357.325 58.2282 356.275 59.2784C355.267 60.3285 353.839 60.9586 351.991 61.1686L346.698 49.1969H330.127L324.771 61.1686ZM344.115 42.0139L337.184 24.7494L336.427 25.0644L337.94 28.971L332.647 42.0139H344.115Z" fill="#5D0089"/>
<path fill-rule="evenodd" clip-rule="evenodd" d="M74.2656 78C74.2656 78 74.2656 48.9222 74.2656 36.8619C72.486 12.0599 51.6866 10.5786 48.0085 16.6011C41.031 28.0263 23.4889 14.3128 21.3819 39.0144C21.3819 51.8029 34.1334 62.687 34.1334 55.2132C34.1334 47.7393 34.1334 24.5076 34.1334 24.5076C34.1334 20.9032 32.4417 9.86839 40.8141 10.4805C48.5193 11.0437 60.4889 20.4952 61.223 24.5076C61.9572 28.52 61.223 48.4461 61.223 48.4461C61.223 50.7584 57.7725 59.3953 45.2189 57.7631V61.5035V64.3598C44.6315 67.5561 40.8465 69.1883 36.9966 69.1883C30.7564 69.1883 0.0018158 61.5035 0.0018158 34.1062C0.0018158 15.527 18.0118 3.81982 46.6137 1.04513H47.4947C58.4333 0.523737 79.3832 -5.87692 83.3597 20.6617C86.0129 38.369 84.5647 78 74.2656 78ZM44.5581 25.641C46.684 21.8326 52.4868 25.5957 52.4868 28.52C52.4868 31.4444 52.4868 46.5419 52.4868 46.5419C51.9484 47.5167 50.299 49.3574 48.0085 48.9222C45.718 48.4869 44.7538 46.882 44.5581 46.1339V25.641Z" fill="#5D0089"/>
</svg>
