<svg width="412" height="89" viewBox="0 0 412 89" fill="none" xmlns="http://www.w3.org/2000/svg">
<path d="M129.526 25.1161C129.526 24.0239 129.925 23.1208 130.723 22.4067C131.521 21.6506 132.53 21.2725 133.748 21.2725H151.264C154.289 21.2725 156.956 21.8816 159.266 23.0998C161.619 24.276 163.425 25.9772 164.685 28.2035C165.987 30.3879 166.638 32.9292 166.638 35.8276C166.638 38.7681 166.008 41.3514 164.748 43.5778C163.488 45.7621 161.703 47.4633 159.392 48.6815C157.082 49.8577 154.373 50.4457 151.264 50.4457H137.969V59.7081C137.969 61.7244 137.234 63.2786 135.764 64.3708C134.336 65.4209 132.257 65.946 129.526 65.946V25.1161ZM151.264 43.1367C153.491 43.1367 155.213 42.4856 156.431 41.1834C157.649 39.8812 158.258 38.075 158.258 35.7646C158.258 33.4963 157.628 31.732 156.368 30.4719C155.15 29.2117 153.449 28.5816 151.264 28.5816H137.969V43.1367H151.264ZM188.512 65.946C185.068 65.946 181.918 65.2739 179.061 63.9297C176.205 62.5435 173.936 60.6742 172.256 58.3219C170.618 55.9695 169.799 53.4072 169.799 50.6348V35.9537C169.799 33.1813 170.618 30.6399 172.256 28.3296C173.936 25.9772 176.205 24.1289 179.061 22.7848C181.918 21.3986 185.068 20.7055 188.512 20.7055C191.957 20.7055 195.107 21.3986 197.964 22.7848C200.862 24.1289 203.131 25.9772 204.769 28.3296C206.449 30.6399 207.289 33.1813 207.289 35.9537V50.6348C207.289 53.4072 206.449 55.9695 204.769 58.3219C203.131 60.6742 200.862 62.5435 197.964 63.9297C195.107 65.2739 191.957 65.946 188.512 65.946ZM188.512 58.5739C191.663 58.5739 194.183 57.8388 196.074 56.3686C197.964 54.8564 198.909 52.9031 198.909 50.5088V36.1427C198.909 33.7063 197.964 31.7531 196.074 30.2828C194.183 28.7706 191.663 28.0145 188.512 28.0145C185.404 28.0145 182.905 28.7706 181.014 30.2828C179.124 31.7531 178.179 33.7063 178.179 36.1427V50.5088C178.179 52.9031 179.124 54.8564 181.014 56.3686C182.905 57.8388 185.404 58.5739 188.512 58.5739ZM213.395 25.1161C213.395 24.0239 213.794 23.1208 214.592 22.4067C215.39 21.6506 216.398 21.2725 217.616 21.2725H235.133C238.157 21.2725 240.825 21.8816 243.135 23.0998C245.487 24.276 247.294 25.9772 248.554 28.2035C249.856 30.3879 250.507 32.9292 250.507 35.8276C250.507 38.7681 249.877 41.3514 248.617 43.5778C247.357 45.7621 245.571 47.4633 243.261 48.6815C240.951 49.8577 238.241 50.4457 235.133 50.4457H221.838V59.7081C221.838 61.7244 221.103 63.2786 219.633 64.3708C218.204 65.4209 216.125 65.946 213.395 65.946V25.1161ZM235.133 43.1367C237.359 43.1367 239.081 42.4856 240.3 41.1834C241.518 39.8812 242.127 38.075 242.127 35.7646C242.127 33.4963 241.497 31.732 240.237 30.4719C239.018 29.2117 237.317 28.5816 235.133 28.5816H221.838V43.1367H235.133ZM274.863 65.946C271.334 65.946 268.142 65.2319 265.286 63.8037C262.471 62.3755 260.266 60.4012 258.67 57.8808C257.073 55.3605 256.275 52.504 256.275 49.3116V26.9434C256.275 24.9271 256.989 23.3938 258.418 22.3437C259.846 21.2515 261.946 20.7055 264.719 20.7055V49.3116C264.719 52.126 265.643 54.3733 267.491 56.0536C269.339 57.7338 271.797 58.5739 274.863 58.5739C277.929 58.5739 280.387 57.7338 282.235 56.0536C284.083 54.3733 285.007 52.126 285.007 49.3116V26.9434C285.007 24.8851 285.722 23.3308 287.15 22.2807C288.578 21.2305 290.678 20.7055 293.451 20.7055V49.3116C293.451 52.504 292.653 55.3605 291.056 57.8808C289.46 60.4012 287.234 62.3755 284.377 63.8037C281.563 65.2319 278.392 65.946 274.863 65.946ZM304.935 65.3789C303.717 65.3789 302.667 64.9378 301.785 64.0557C300.944 63.1736 300.524 62.1234 300.524 60.9053V26.9434C300.524 24.8431 301.218 23.2888 302.604 22.2807C303.99 21.2305 306.111 20.7055 308.968 20.7055V58.0699H325.98C327.954 58.0699 329.446 58.6999 330.454 59.9601C331.462 61.1783 331.966 62.9846 331.966 65.3789H304.935ZM340.318 65.946C338.511 65.736 337.083 65.1059 336.033 64.0557C335.025 63.0056 334.521 61.6824 334.521 60.0861C334.521 58.868 334.815 57.6078 335.403 56.3056L349.832 23.4779C350.63 21.6296 352.016 20.7055 353.991 20.7055C355.923 20.7055 357.288 21.6296 358.086 23.4779L372.515 56.3056C373.103 57.6918 373.397 58.952 373.397 60.0861C373.397 61.6824 372.872 63.0056 371.822 64.0557C370.814 65.1059 369.386 65.736 367.538 65.946L362.245 53.9743H345.673L340.318 65.946ZM359.661 46.7912L352.73 29.5267L351.974 29.8418L353.487 33.7483L348.194 46.7912H359.661Z" fill="white"/>
<path fill-rule="evenodd" clip-rule="evenodd" d="M84.7375 89C84.7375 89 84.7375 55.8215 84.7375 42.0604C82.7069 13.7607 58.9742 12.0704 54.7775 18.9423C46.816 31.9787 26.8 16.3313 24.3958 44.5164C24.3958 59.1084 38.9457 71.5275 38.9457 62.9996C38.9457 54.4718 38.9457 27.9638 38.9457 27.9638C38.9457 23.8511 37.0154 11.2601 46.5685 11.9585C55.3603 12.6012 69.0179 23.3855 69.8556 27.9638C70.6933 32.5421 69.8556 55.2783 69.8556 55.2783C69.8556 57.9166 65.9185 67.7715 51.5944 65.9092V70.1771V73.4362C50.9243 77.0833 46.6054 78.9457 42.2126 78.9457C35.0924 78.9457 0.000617981 70.1771 0.000617981 38.916C0.000617981 17.7167 20.5505 4.35851 53.186 1.19251H54.1912C66.6724 0.597597 90.5768 -6.70571 95.1141 23.5755C98.1415 43.78 96.4891 89 84.7375 89ZM50.8405 29.257C53.2662 24.9115 59.8873 29.2054 59.8873 32.5421C59.8873 35.8788 59.8873 53.1055 59.8873 53.1055C59.273 54.2178 57.391 56.3181 54.7775 55.8215C52.164 55.3248 51.0638 53.4935 50.8405 52.6399V29.257Z" fill="white"/>
</svg>
